<?xml version="1.0" standalone="no"?>
<!DOCTYPE svg PUBLIC "-//W3C//DTD SVG 20010904//EN"
 "http://www.w3.org/TR/2001/REC-SVG-20010904/DTD/svg10.dtd">
<svg version="1.0" xmlns="http://www.w3.org/2000/svg"
 width="43.000000pt" height="44.000000pt" viewBox="0 0 43.000000 44.000000"
 preserveAspectRatio="xMidYMid meet">

<g transform="translate(0.000000,44.000000) scale(0.100000,-0.100000)"
fill="#000000" stroke="none">
<path d="M22 420 c-31 -29 -32 -130 -2 -160 27 -27 118 -28 149 -2 40 32 40
123 1 162 -28 28 -118 28 -148 0z"/>
<path d="M260 420 c-39 -39 -39 -130 1 -162 31 -26 122 -25 149 2 30 30 29
131 -2 160 -30 28 -120 28 -148 0z"/>
<path d="M20 180 c-15 -15 -20 -33 -20 -77 0 -32 4 -63 8 -69 25 -38 129 -47
162 -14 39 39 39 130 -1 163 -31 25 -122 24 -149 -3z"/>
<path d="M261 183 c-40 -33 -40 -124 -1 -163 28 -28 118 -28 148 0 31 29 32
130 2 160 -27 27 -118 28 -149 3z"/>
</g>
</svg>
