<?xml version="1.0" standalone="no"?>
<!DOCTYPE svg PUBLIC "-//W3C//DTD SVG 20010904//EN"
 "http://www.w3.org/TR/2001/REC-SVG-20010904/DTD/svg10.dtd">
<svg version="1.0" xmlns="http://www.w3.org/2000/svg"
 width="44.000000pt" height="44.000000pt" viewBox="0 0 44.000000 44.000000"
 preserveAspectRatio="xMidYMid meet">

<g transform="translate(0.000000,44.000000) scale(0.100000,-0.100000)"
fill="#000000" stroke="none">
<path d="M100 372 c-51 -31 -95 -62 -97 -68 -4 -12 194 -134 217 -134 23 0
221 122 217 133 -6 19 -191 127 -217 127 -14 0 -68 -26 -120 -58z"/>
<path d="M7 234 c-4 -4 -7 -11 -7 -15 0 -9 205 -129 221 -129 17 0 219 120
219 130 0 25 -31 16 -115 -34 -51 -31 -99 -56 -105 -56 -7 0 -49 22 -94 50
-95 57 -109 63 -119 54z"/>
<path d="M4 149 c-8 -14 4 -24 124 -95 l93 -56 102 62 c120 73 124 77 110 91
-7 7 -40 -8 -112 -51 l-101 -61 -82 49 c-120 71 -126 74 -134 61z"/>
</g>
</svg>
