<?xml version="1.0" standalone="no"?>
<!DOCTYPE svg PUBLIC "-//W3C//DTD SVG 20010904//EN"
 "http://www.w3.org/TR/2001/REC-SVG-20010904/DTD/svg10.dtd">
<svg version="1.0" xmlns="http://www.w3.org/2000/svg"
 width="111.000000pt" height="91.000000pt" viewBox="0 0 111.000000 91.000000"
 preserveAspectRatio="xMidYMid meet">

<g transform="translate(0.000000,91.000000) scale(0.100000,-0.100000)"
fill="#000000" stroke="none">
<path d="M591 892 c213 -71 347 -290 311 -505 -15 -83 -57 -176 -106 -233 -46
-54 -134 -112 -205 -136 l-56 -19 110 5 c131 5 195 25 285 92 116 85 175 209
174 364 -1 151 -55 263 -171 352 -90 68 -156 89 -288 94 l-110 5 56 -19z"/>
<path d="M385 645 c-22 -8 -57 -32 -77 -53 -149 -159 21 -402 225 -323 l29 11
-28 33 c-73 86 -73 209 1 283 30 30 26 40 -23 54 -49 13 -79 12 -127 -5z"/>
</g>
</svg>
