<?xml version="1.0" standalone="no"?>
<!DOCTYPE svg PUBLIC "-//W3C//DTD SVG 20010904//EN"
 "http://www.w3.org/TR/2001/REC-SVG-20010904/DTD/svg10.dtd">
<svg version="1.0" xmlns="http://www.w3.org/2000/svg"
 width="44.000000pt" height="44.000000pt" viewBox="0 0 44.000000 44.000000"
 preserveAspectRatio="xMidYMid meet">

<g transform="translate(0.000000,44.000000) scale(0.100000,-0.100000)"
fill="#000000" stroke="none">
<path d="M186 424 c-9 -8 -16 -21 -16 -29 0 -22 -48 -47 -80 -40 -21 5 -34 1
-49 -14 -26 -26 -26 -42 -1 -74 25 -32 25 -62 0 -94 -25 -32 -25 -48 1 -74 15
-15 28 -19 49 -14 35 8 76 -16 84 -50 11 -44 81 -44 92 0 8 34 49 58 84 50 21
-5 34 -1 49 14 26 26 26 42 1 74 -25 32 -25 62 0 94 25 32 25 48 -1 74 -15 15
-28 19 -49 14 -32 -7 -80 18 -80 40 0 20 -29 45 -50 45 -10 0 -26 -7 -34 -16z
m88 -156 c21 -29 20 -77 -1 -100 -20 -23 -80 -24 -105 -1 -23 20 -24 80 -1
105 24 27 87 24 107 -4z"/>
</g>
</svg>
